<svg width="59" height="14" viewBox="0 0 59 14" fill="none" xmlns="http://www.w3.org/2000/svg">
<path d="M1.336 13.128C0.546667 13.128 0.152 12.7707 0.152 12.056V2.696C0.152 2.32267 0.242667 2.05067 0.424 1.88C0.605333 1.70933 0.893333 1.624 1.288 1.624C2.06667 1.624 2.456 1.98133 2.456 2.696V4.296C2.456 5.61867 2.41867 6.408 2.344 6.664C2.62133 6.38667 2.92 6.19467 3.24 6.088C3.56 5.98133 3.98133 5.928 4.504 5.928H6.072V2.696C6.072 2.32267 6.16267 2.05067 6.344 1.88C6.52533 1.70933 6.81333 1.624 7.208 1.624C7.98667 1.624 8.376 1.98133 8.376 2.696V12.056C8.376 12.4187 8.28533 12.6907 8.104 12.872C7.93333 13.0427 7.65067 13.128 7.256 13.128C6.46667 13.128 6.072 12.7707 6.072 12.056V7.32C6.008 7.512 5.8 7.672 5.448 7.8C5.096 7.91733 4.68533 7.976 4.216 7.976C3.544 7.976 3.08 8.11467 2.824 8.392C2.57867 8.65867 2.456 9.15467 2.456 9.88V12.056C2.456 12.4187 2.36533 12.6907 2.184 12.872C2.01333 13.0427 1.73067 13.128 1.336 13.128ZM11.2843 13.128C10.5163 13.128 10.1323 12.7653 10.1323 12.04V8.2C10.1323 7.176 10.4576 6.36533 11.1083 5.768C11.7696 5.17067 12.6389 4.872 13.7163 4.872C14.7936 4.872 15.6576 5.17067 16.3083 5.768C16.9696 6.36533 17.3003 7.176 17.3003 8.2V12.04C17.3003 12.7653 16.9163 13.128 16.1483 13.128C15.3803 13.128 14.9963 12.7653 14.9963 12.04V8.328C14.9963 7.82667 14.8843 7.448 14.6603 7.192C14.4363 6.92533 14.1216 6.792 13.7163 6.792C13.3109 6.792 12.9963 6.92533 12.7723 7.192C12.5483 7.448 12.4363 7.82667 12.4363 8.328V12.04C12.4363 12.7653 12.0523 13.128 11.2843 13.128ZM20.1749 13.128C19.4069 13.128 19.0229 12.7653 19.0229 12.04V8.2C19.0229 7.112 19.2789 6.28533 19.7909 5.72C20.3135 5.15467 21.0602 4.872 22.0309 4.872C23.3535 4.872 24.2495 5.34667 24.7189 6.296C25.1882 5.34667 26.0842 4.872 27.4069 4.872C28.3775 4.872 29.1189 5.15467 29.6309 5.72C30.1535 6.28533 30.4149 7.112 30.4149 8.2V12.04C30.4149 12.7653 30.0309 13.128 29.2629 13.128C28.4949 13.128 28.1109 12.7653 28.1109 12.04V8.328C28.1109 7.784 28.0202 7.39467 27.8389 7.16C27.6575 6.91467 27.3749 6.792 26.9909 6.792C26.2229 6.792 25.8389 7.304 25.8389 8.328V11.976C25.8389 12.7013 25.4655 13.064 24.7189 13.064C23.9722 13.064 23.5989 12.7013 23.5989 11.976V8.328C23.5989 7.304 23.2149 6.792 22.4469 6.792C21.7002 6.792 21.3269 7.304 21.3269 8.328V12.04C21.3269 12.7653 20.9429 13.128 20.1749 13.128ZM32.724 13.128C32.34 13.128 32.0307 13.0107 31.796 12.776C31.572 12.5413 31.46 12.2427 31.46 11.88C31.46 11.5067 31.572 11.2027 31.796 10.968C32.0307 10.7333 32.34 10.616 32.724 10.616C33.0973 10.616 33.4013 10.7333 33.636 10.968C33.8707 11.2027 33.988 11.5067 33.988 11.88C33.988 12.2427 33.8707 12.5413 33.636 12.776C33.4013 13.0107 33.0973 13.128 32.724 13.128ZM38.1489 13.128C36.9755 13.128 36.0475 12.7547 35.3649 12.008C34.6929 11.2613 34.3569 10.168 34.3569 8.728C34.3569 7.768 34.4955 7.00533 34.7729 6.44C35.0502 5.87467 35.4342 5.47467 35.9249 5.24C36.4262 4.99467 36.9915 4.872 37.6209 4.872C38.1862 4.872 38.6449 4.94133 38.9969 5.08C39.3489 5.21867 39.6262 5.45333 39.8289 5.784C39.7542 5.56 39.6955 5.352 39.6529 5.16C39.6209 4.95733 39.5942 4.72267 39.5729 4.456C39.5622 4.18933 39.5569 3.848 39.5569 3.432V2.056C39.5569 1.224 39.9142 0.808 40.6289 0.808C41.4075 0.808 41.7969 1.224 41.7969 2.056V8.824C41.7969 10.264 41.4769 11.3413 40.8369 12.056C40.1969 12.7707 39.3009 13.128 38.1489 13.128ZM38.0369 11.208C38.4849 11.208 38.8315 11.048 39.0769 10.728C39.3329 10.408 39.4609 9.81067 39.4609 8.936C39.4609 8.34933 39.4022 7.90667 39.2849 7.608C39.1782 7.29867 39.0182 7.08533 38.8049 6.968C38.5915 6.85067 38.3355 6.792 38.0369 6.792C37.7382 6.792 37.4822 6.85067 37.2689 6.968C37.0555 7.08533 36.8902 7.29867 36.7729 7.608C36.6662 7.90667 36.6129 8.34933 36.6129 8.936C36.6129 9.81067 36.7355 10.408 36.9809 10.728C37.2369 11.048 37.5889 11.208 38.0369 11.208ZM47.47 13.128C46.4033 13.128 45.566 12.952 44.958 12.6C44.3607 12.248 43.934 11.7627 43.678 11.144C43.4327 10.5253 43.31 9.816 43.31 9.016C43.31 7.544 43.6353 6.488 44.286 5.848C44.9367 5.19733 45.8113 4.872 46.91 4.872C47.5713 4.872 48.158 4.984 48.67 5.208C49.182 5.432 49.582 5.752 49.87 6.168C50.158 6.57333 50.302 7.06933 50.302 7.656C50.302 9.36267 49.086 10.216 46.654 10.216H45.726C45.8113 10.5467 45.95 10.808 46.142 11C46.3447 11.1813 46.6967 11.272 47.198 11.272C47.4753 11.272 47.6993 11.256 47.87 11.224C48.0407 11.192 48.2007 11.16 48.35 11.128C48.51 11.096 48.6913 11.08 48.894 11.08C49.182 11.08 49.4113 11.1333 49.582 11.24C49.7527 11.336 49.838 11.5387 49.838 11.848C49.838 12.2853 49.646 12.6107 49.262 12.824C48.8887 13.0267 48.2913 13.128 47.47 13.128ZM45.614 9.032C45.6993 8.91467 45.7953 8.84 45.902 8.808C46.0087 8.76533 46.174 8.744 46.398 8.744C47.0273 8.744 47.4593 8.68533 47.694 8.568C47.9393 8.44 48.062 8.216 48.062 7.896C48.062 7.49067 47.95 7.18133 47.726 6.968C47.502 6.744 47.2193 6.632 46.878 6.632C46.4833 6.632 46.174 6.79733 45.95 7.128C45.726 7.45867 45.614 8.09333 45.614 9.032ZM54.513 13.128C54.2997 13.128 54.0757 13.0853 53.841 13C53.617 12.904 53.4037 12.7387 53.201 12.504C52.9983 12.2587 52.8223 11.9067 52.673 11.448L50.993 6.184C50.9183 5.93867 50.929 5.71467 51.025 5.512C51.121 5.29867 51.2757 5.13333 51.489 5.016C51.7023 4.888 51.937 4.824 52.193 4.824C52.4277 4.824 52.641 4.88267 52.833 5C53.0357 5.11733 53.1743 5.29867 53.249 5.544L54.817 10.84C55.2223 10.168 55.489 9.50133 55.617 8.84C55.7557 8.168 55.825 7.52267 55.825 6.904C55.825 6.712 55.8197 6.52533 55.809 6.344C55.7983 6.152 55.793 5.97067 55.793 5.8C55.793 5.49067 55.9157 5.25067 56.161 5.08C56.417 4.90933 56.6997 4.824 57.009 4.824C57.649 4.824 58.017 5.128 58.113 5.736C58.1343 5.84267 58.1503 5.98667 58.161 6.168C58.1717 6.33867 58.177 6.536 58.177 6.76C58.177 7.12267 58.1397 7.54933 58.065 8.04C58.001 8.52 57.873 9.03733 57.681 9.592C57.4997 10.136 57.2223 10.696 56.849 11.272C56.5183 11.784 56.2197 12.1733 55.953 12.44C55.697 12.7067 55.4517 12.888 55.217 12.984C54.9823 13.08 54.7477 13.128 54.513 13.128Z" fill="white"/>
</svg>
