<svg width="50" height="50" viewBox="0 0 50 50" fill="none" xmlns="http://www.w3.org/2000/svg">
<circle cx="25" cy="25" r="25" fill="#222222"/>
<path d="M10.6407 20.128C9.85135 20.128 9.45669 19.7707 9.45669 19.056V9.696C9.45669 9.32267 9.54735 9.05067 9.72869 8.88C9.91002 8.70933 10.198 8.624 10.5927 8.624C11.3714 8.624 11.7607 8.98133 11.7607 9.696V11.296C11.7607 12.6187 11.7234 13.408 11.6487 13.664C11.926 13.3867 12.2247 13.1947 12.5447 13.088C12.8647 12.9813 13.286 12.928 13.8087 12.928H15.3767V9.696C15.3767 9.32267 15.4674 9.05067 15.6487 8.88C15.83 8.70933 16.118 8.624 16.5127 8.624C17.2914 8.624 17.6807 8.98133 17.6807 9.696V19.056C17.6807 19.4187 17.59 19.6907 17.4087 19.872C17.238 20.0427 16.9554 20.128 16.5607 20.128C15.7714 20.128 15.3767 19.7707 15.3767 19.056V14.32C15.3127 14.512 15.1047 14.672 14.7527 14.8C14.4007 14.9173 13.99 14.976 13.5207 14.976C12.8487 14.976 12.3847 15.1147 12.1287 15.392C11.8834 15.6587 11.7607 16.1547 11.7607 16.88V19.056C11.7607 19.4187 11.67 19.6907 11.4887 19.872C11.318 20.0427 11.0354 20.128 10.6407 20.128ZM20.5889 20.128C19.8209 20.128 19.4369 19.7653 19.4369 19.04V15.2C19.4369 14.176 19.7623 13.3653 20.4129 12.768C21.0743 12.1707 21.9436 11.872 23.0209 11.872C24.0983 11.872 24.9623 12.1707 25.6129 12.768C26.2743 13.3653 26.6049 14.176 26.6049 15.2V19.04C26.6049 19.7653 26.2209 20.128 25.4529 20.128C24.6849 20.128 24.3009 19.7653 24.3009 19.04V15.328C24.3009 14.8267 24.1889 14.448 23.9649 14.192C23.7409 13.9253 23.4263 13.792 23.0209 13.792C22.6156 13.792 22.3009 13.9253 22.0769 14.192C21.8529 14.448 21.7409 14.8267 21.7409 15.328V19.04C21.7409 19.7653 21.3569 20.128 20.5889 20.128ZM29.4796 20.128C28.7116 20.128 28.3276 19.7653 28.3276 19.04V15.2C28.3276 14.112 28.5836 13.2853 29.0956 12.72C29.6182 12.1547 30.3649 11.872 31.3356 11.872C32.6582 11.872 33.5542 12.3467 34.0236 13.296C34.4929 12.3467 35.3889 11.872 36.7116 11.872C37.6822 11.872 38.4236 12.1547 38.9356 12.72C39.4582 13.2853 39.7196 14.112 39.7196 15.2V19.04C39.7196 19.7653 39.3356 20.128 38.5676 20.128C37.7996 20.128 37.4156 19.7653 37.4156 19.04V15.328C37.4156 14.784 37.3249 14.3947 37.1436 14.16C36.9622 13.9147 36.6796 13.792 36.2956 13.792C35.5276 13.792 35.1436 14.304 35.1436 15.328V18.976C35.1436 19.7013 34.7702 20.064 34.0236 20.064C33.2769 20.064 32.9036 19.7013 32.9036 18.976V15.328C32.9036 14.304 32.5196 13.792 31.7516 13.792C31.0049 13.792 30.6316 14.304 30.6316 15.328V19.04C30.6316 19.7653 30.2476 20.128 29.4796 20.128ZM16.4692 41.128C15.2959 41.128 14.3679 40.7547 13.6852 40.008C13.0132 39.2613 12.6772 38.168 12.6772 36.728C12.6772 35.768 12.8159 35.0053 13.0932 34.44C13.3705 33.8747 13.7545 33.4747 14.2452 33.24C14.7465 32.9947 15.3119 32.872 15.9412 32.872C16.5065 32.872 16.9652 32.9413 17.3172 33.08C17.6692 33.2187 17.9465 33.4533 18.1492 33.784C18.0745 33.56 18.0159 33.352 17.9732 33.16C17.9412 32.9573 17.9145 32.7227 17.8932 32.456C17.8825 32.1893 17.8772 31.848 17.8772 31.432V30.056C17.8772 29.224 18.2345 28.808 18.9492 28.808C19.7279 28.808 20.1172 29.224 20.1172 30.056V36.824C20.1172 38.264 19.7972 39.3413 19.1572 40.056C18.5172 40.7707 17.6212 41.128 16.4692 41.128ZM16.3572 39.208C16.8052 39.208 17.1519 39.048 17.3972 38.728C17.6532 38.408 17.7812 37.8107 17.7812 36.936C17.7812 36.3493 17.7225 35.9067 17.6052 35.608C17.4985 35.2987 17.3385 35.0853 17.1252 34.968C16.9119 34.8507 16.6559 34.792 16.3572 34.792C16.0585 34.792 15.8025 34.8507 15.5892 34.968C15.3759 35.0853 15.2105 35.2987 15.0932 35.608C14.9865 35.9067 14.9332 36.3493 14.9332 36.936C14.9332 37.8107 15.0559 38.408 15.3012 38.728C15.5572 39.048 15.9092 39.208 16.3572 39.208ZM25.7903 41.128C24.7236 41.128 23.8863 40.952 23.2783 40.6C22.681 40.248 22.2543 39.7627 21.9983 39.144C21.753 38.5253 21.6303 37.816 21.6303 37.016C21.6303 35.544 21.9556 34.488 22.6063 33.848C23.257 33.1973 24.1316 32.872 25.2303 32.872C25.8916 32.872 26.4783 32.984 26.9903 33.208C27.5023 33.432 27.9023 33.752 28.1903 34.168C28.4783 34.5733 28.6223 35.0693 28.6223 35.656C28.6223 37.3627 27.4063 38.216 24.9743 38.216H24.0463C24.1316 38.5467 24.2703 38.808 24.4623 39C24.665 39.1813 25.017 39.272 25.5183 39.272C25.7956 39.272 26.0196 39.256 26.1903 39.224C26.361 39.192 26.521 39.16 26.6703 39.128C26.8303 39.096 27.0116 39.08 27.2143 39.08C27.5023 39.08 27.7316 39.1333 27.9023 39.24C28.073 39.336 28.1583 39.5387 28.1583 39.848C28.1583 40.2853 27.9663 40.6107 27.5823 40.824C27.209 41.0267 26.6116 41.128 25.7903 41.128ZM23.9343 37.032C24.0196 36.9147 24.1156 36.84 24.2223 36.808C24.329 36.7653 24.4943 36.744 24.7183 36.744C25.3476 36.744 25.7796 36.6853 26.0143 36.568C26.2596 36.44 26.3823 36.216 26.3823 35.896C26.3823 35.4907 26.2703 35.1813 26.0463 34.968C25.8223 34.744 25.5396 34.632 25.1983 34.632C24.8036 34.632 24.4943 34.7973 24.2703 35.128C24.0463 35.4587 23.9343 36.0933 23.9343 37.032ZM32.8333 41.128C32.62 41.128 32.396 41.0853 32.1613 41C31.9373 40.904 31.724 40.7387 31.5213 40.504C31.3186 40.2587 31.1426 39.9067 30.9933 39.448L29.3133 34.184C29.2386 33.9387 29.2493 33.7147 29.3453 33.512C29.4413 33.2987 29.596 33.1333 29.8093 33.016C30.0226 32.888 30.2573 32.824 30.5133 32.824C30.748 32.824 30.9613 32.8827 31.1533 33C31.356 33.1173 31.4946 33.2987 31.5693 33.544L33.1373 38.84C33.5426 38.168 33.8093 37.5013 33.9373 36.84C34.076 36.168 34.1453 35.5227 34.1453 34.904C34.1453 34.712 34.14 34.5253 34.1293 34.344C34.1186 34.152 34.1133 33.9707 34.1133 33.8C34.1133 33.4907 34.236 33.2507 34.4813 33.08C34.7373 32.9093 35.02 32.824 35.3293 32.824C35.9693 32.824 36.3373 33.128 36.4333 33.736C36.4546 33.8427 36.4706 33.9867 36.4813 34.168C36.492 34.3387 36.4973 34.536 36.4973 34.76C36.4973 35.1227 36.46 35.5493 36.3853 36.04C36.3213 36.52 36.1933 37.0373 36.0013 37.592C35.82 38.136 35.5426 38.696 35.1693 39.272C34.8386 39.784 34.54 40.1733 34.2733 40.44C34.0173 40.7067 33.772 40.888 33.5373 40.984C33.3026 41.08 33.068 41.128 32.8333 41.128Z" fill="white"/>
</svg>
